<svg width="31" height="29" viewBox="0 0 31 29" fill="none" xmlns="http://www.w3.org/2000/svg">
<path d="M-0.000244141 1.8125C-0.000244141 1.08516 0.580549 0.5 1.30247 0.5H3.7722C4.96635 0.5 6.02481 1.2 6.51875 2.25H28.8277C30.2553 2.25 31.2975 3.61719 30.9229 5.00625L28.6975 13.3352C28.2361 15.0523 26.6891 16.25 24.925 16.25H9.26531L9.55842 17.8086C9.67783 18.4266 10.2152 18.875 10.8394 18.875H26.4883C27.2102 18.875 27.791 19.4602 27.791 20.1875C27.791 20.9148 27.2102 21.5 26.4883 21.5H10.8394C8.96134 21.5 7.34923 20.1547 7.00184 18.3008L4.20101 3.48047C4.16301 3.27266 3.98389 3.125 3.7722 3.125H1.30247C0.580549 3.125 -0.000244141 2.53984 -0.000244141 1.8125ZM6.94756 25.875C6.94756 25.5303 7.01495 25.1889 7.14589 24.8705C7.27682 24.552 7.46874 24.2626 7.71067 24.0188C7.95261 23.7751 8.23983 23.5817 8.55594 23.4498C8.87204 23.3179 9.21084 23.25 9.55299 23.25C9.89514 23.25 10.2339 23.3179 10.55 23.4498C10.8661 23.5817 11.1534 23.7751 11.3953 24.0188C11.6372 24.2626 11.8292 24.552 11.9601 24.8705C12.091 25.1889 12.1584 25.5303 12.1584 25.875C12.1584 26.2197 12.091 26.5611 11.9601 26.8795C11.8292 27.198 11.6372 27.4874 11.3953 27.7312C11.1534 27.9749 10.8661 28.1683 10.55 28.3002C10.2339 28.4321 9.89514 28.5 9.55299 28.5C9.21084 28.5 8.87204 28.4321 8.55594 28.3002C8.23983 28.1683 7.95261 27.9749 7.71067 27.7312C7.46874 27.4874 7.27682 27.198 7.14589 26.8795C7.01495 26.5611 6.94756 26.2197 6.94756 25.875ZM25.1856 23.25C25.8766 23.25 26.5393 23.5266 27.0279 24.0188C27.5165 24.5111 27.791 25.1788 27.791 25.875C27.791 26.5712 27.5165 27.2389 27.0279 27.7312C26.5393 28.2234 25.8766 28.5 25.1856 28.5C24.4946 28.5 23.8319 28.2234 23.3432 27.7312C22.8546 27.2389 22.5801 26.5712 22.5801 25.875C22.5801 25.1788 22.8546 24.5111 23.3432 24.0188C23.8319 23.5266 24.4946 23.25 25.1856 23.25Z" fill="white"/>
</svg>
