<svg width="123" height="43" viewBox="0 0 123 43" fill="none" xmlns="http://www.w3.org/2000/svg">
<path d="M21.1653 30.735C21.1653 32 20.1503 33.015 18.8853 33.015C17.6203 33.015 16.5953 32 16.5953 30.735C16.5953 29.47 17.6253 28.445 18.8853 28.445C20.1553 28.445 21.1653 29.47 21.1653 30.735ZM8.47029 28.445C7.20529 28.445 6.19029 29.475 6.19029 30.735C6.19029 31.995 7.20529 33.015 8.47029 33.015C9.73529 33.015 10.7603 32 10.7603 30.735C10.7603 29.47 9.73529 28.445 8.47029 28.445ZM23.0553 14.945C7.94529 14.945 4.09529 14.305 0.000289917 9.98499C1.72029 12.57 2.66529 17.43 18.6553 17.195C35.3203 16.945 25.1553 21.5 22.1953 26.64C31.5303 18.305 38.1653 14.945 23.0553 14.945Z" fill="white"/>
<path d="M48.8005 29H41.0427C40.9802 29 40.9489 28.9609 40.9489 28.8828L40.9724 12.418C40.9724 12.3398 41.0114 12.3008 41.0896 12.3008H43.7614C43.8396 12.3008 43.8786 12.3398 43.8786 12.418L43.8552 26.0469H48.8005C48.8786 26.0469 48.9177 26.0859 48.9177 26.1641V28.8828C48.9177 28.9609 48.8786 29 48.8005 29ZM54.906 29.2344C54.0388 29.2344 53.2458 29.0156 52.5271 28.5781C51.8161 28.1406 51.2497 27.5547 50.8278 26.8203C50.4138 26.0781 50.2067 25.2539 50.2067 24.3477L50.2302 16.8594C50.2302 15.9688 50.4333 15.1641 50.8396 14.4453C51.2458 13.7188 51.8044 13.1367 52.5153 12.6992C53.2341 12.2539 54.031 12.0312 54.906 12.0312C55.7966 12.0312 56.5896 12.2461 57.2849 12.6758C57.988 13.1055 58.5466 13.6875 58.9607 14.4219C59.3825 15.1484 59.5935 15.9609 59.5935 16.8594V17.9609C59.5935 18.0234 59.5622 18.0547 59.4997 18.0547H56.8044C56.7419 18.0547 56.7107 18.0234 56.7107 17.9609V16.8594C56.7107 16.3281 56.5388 15.8711 56.195 15.4883C55.8513 15.1055 55.4216 14.9141 54.906 14.9141C54.3357 14.9141 53.8982 15.1094 53.5935 15.5C53.2888 15.8906 53.1364 16.3438 53.1364 16.8594V24.3477C53.1364 24.9336 53.3083 25.4141 53.6521 25.7891C53.9958 26.1562 54.4138 26.3398 54.906 26.3398C55.4216 26.3398 55.8513 26.1367 56.195 25.7305C56.5388 25.3164 56.7107 24.8555 56.7107 24.3477V23.2344C56.7107 23.1719 56.7419 23.1406 56.8044 23.1406H59.5232C59.5857 23.1406 59.6169 23.1719 59.6169 23.2344V24.3477C59.6169 25.2461 59.406 26.0664 58.9841 26.8086C58.5544 27.543 57.988 28.1328 57.2849 28.5781C56.5817 29.0156 55.7888 29.2344 54.906 29.2344ZM65.781 29.2344C64.9372 29.2344 64.156 29.0156 63.4372 28.5781C62.7185 28.1406 62.1442 27.5547 61.7146 26.8203C61.2927 26.0781 61.0817 25.2695 61.0817 24.3945L61.1286 12.3945C61.1286 12.332 61.1599 12.3008 61.2224 12.3008H63.9177C63.9802 12.3008 64.0114 12.332 64.0114 12.3945V24.3945C64.0114 24.9336 64.1833 25.3945 64.5271 25.7773C64.8708 26.1523 65.2888 26.3398 65.781 26.3398C66.2966 26.3398 66.7263 26.1523 67.07 25.7773C67.4138 25.3945 67.5857 24.9336 67.5857 24.3945V12.3945C67.5857 12.332 67.6169 12.3008 67.6794 12.3008H70.3747C70.4372 12.3008 70.4685 12.332 70.4685 12.3945L70.5153 24.3945C70.5153 25.2773 70.3044 26.0898 69.8825 26.832C69.4528 27.5664 68.8825 28.1523 68.1716 28.5898C67.4607 29.0195 66.6638 29.2344 65.781 29.2344ZM76.7966 29H72.4958C72.4333 29 72.4021 28.9609 72.4021 28.8828L72.4489 12.3945C72.4489 12.332 72.4802 12.3008 72.5427 12.3008H77.1599C78.0583 12.3008 78.8747 12.5195 79.6091 12.957C80.3278 13.3945 80.8942 13.9766 81.3083 14.7031C81.7224 15.4219 81.9294 16.2031 81.9294 17.0469C81.9294 17.7344 81.7732 18.375 81.4607 18.9688C81.1482 19.5625 80.7771 20.043 80.3474 20.4102C80.8083 20.8711 81.1677 21.4062 81.4255 22.0156C81.6833 22.625 81.8122 23.2656 81.8122 23.9375C81.8122 24.8672 81.5896 25.7148 81.1442 26.4805C80.6911 27.2461 80.0857 27.8594 79.3278 28.3203C78.57 28.7734 77.7263 29 76.7966 29ZM77.1599 15.1484H75.3317V18.9219H77.1599C77.7146 18.9219 78.1638 18.7266 78.5075 18.3359C78.8513 17.9375 79.0232 17.5078 79.0232 17.0469C79.0232 16.5391 78.8396 16.0977 78.4724 15.7227C78.1052 15.3398 77.6677 15.1484 77.1599 15.1484ZM76.7966 21.8281H75.3317L75.3083 26.0703H76.7966C77.3747 26.0703 77.8708 25.8594 78.2849 25.4375C78.6989 25.0156 78.906 24.5156 78.906 23.9375C78.906 23.3594 78.6989 22.8633 78.2849 22.4492C77.8708 22.0352 77.3747 21.8281 76.7966 21.8281ZM87.9763 29.2344C87.1247 29.2344 86.3396 29.0156 85.6208 28.5781C84.9099 28.1406 84.3357 27.5586 83.8982 26.832C83.4685 26.0977 83.2536 25.293 83.2536 24.418L83.2771 16.8125C83.2771 15.9219 83.4919 15.1211 83.9216 14.4102C84.3435 13.6914 84.9138 13.1172 85.6325 12.6875C86.3513 12.25 87.1325 12.0312 87.9763 12.0312C88.8513 12.0312 89.6364 12.2461 90.3317 12.6758C91.0349 13.1055 91.5974 13.6836 92.0192 14.4102C92.4489 15.1289 92.6638 15.9297 92.6638 16.8125L92.6872 24.418C92.6872 25.293 92.4763 26.0938 92.0544 26.8203C91.6247 27.5547 91.0544 28.1406 90.3435 28.5781C89.6325 29.0156 88.8435 29.2344 87.9763 29.2344ZM87.9763 26.3398C88.4607 26.3398 88.8825 26.1445 89.2419 25.7539C89.6013 25.3555 89.781 24.9102 89.781 24.418L89.7575 16.8125C89.7575 16.2812 89.5896 15.832 89.2536 15.4648C88.9177 15.0977 88.4919 14.9141 87.9763 14.9141C87.4841 14.9141 87.0622 15.0938 86.7107 15.4531C86.3591 15.8125 86.1833 16.2656 86.1833 16.8125V24.418C86.1833 24.9414 86.3591 25.3945 86.7107 25.7773C87.0622 26.1523 87.4841 26.3398 87.9763 26.3398ZM98.5817 29.2344C97.7302 29.2344 96.945 29.0156 96.2263 28.5781C95.5153 28.1406 94.945 27.5586 94.5153 26.832C94.0935 26.0977 93.8825 25.293 93.8825 24.418V23.3164C93.8825 23.2305 93.9216 23.1875 93.9997 23.1875H96.695C96.7575 23.1875 96.7888 23.2305 96.7888 23.3164V24.418C96.7888 24.9414 96.9646 25.3945 97.3161 25.7773C97.6677 26.1523 98.0896 26.3398 98.5817 26.3398C99.0817 26.3398 99.5075 26.1484 99.8591 25.7656C100.211 25.375 100.386 24.9258 100.386 24.418C100.386 23.832 100.004 23.3203 99.238 22.8828C99.113 22.8047 98.9489 22.7109 98.7458 22.6016C98.5505 22.4844 98.3161 22.3516 98.0427 22.2031C97.7692 22.0547 97.5036 21.9102 97.2458 21.7695C96.988 21.6211 96.738 21.4805 96.4958 21.3477C95.6208 20.832 94.9685 20.1875 94.5388 19.4141C94.1169 18.6328 93.906 17.7578 93.906 16.7891C93.906 15.8984 94.1247 15.0938 94.5622 14.375C94.9997 13.6641 95.57 13.1016 96.2732 12.6875C96.9841 12.2656 97.7536 12.0547 98.5817 12.0547C99.4333 12.0547 100.215 12.2656 100.925 12.6875C101.636 13.1172 102.203 13.6875 102.625 14.3984C103.054 15.1094 103.269 15.9062 103.269 16.7891V18.7578C103.269 18.8203 103.238 18.8516 103.175 18.8516H100.48C100.418 18.8516 100.386 18.8203 100.386 18.7578L100.363 16.7891C100.363 16.2266 100.187 15.7695 99.8357 15.418C99.4841 15.0664 99.0661 14.8906 98.5817 14.8906C98.0896 14.8906 97.6677 15.0781 97.3161 15.4531C96.9646 15.8281 96.7888 16.2734 96.7888 16.7891C96.7888 17.3125 96.8982 17.75 97.1169 18.1016C97.3435 18.4531 97.7536 18.7891 98.3474 19.1094C98.4099 19.1406 98.5544 19.2188 98.781 19.3438C99.0075 19.4688 99.2575 19.6094 99.531 19.7656C99.8122 19.9141 100.066 20.0508 100.293 20.1758C100.519 20.293 100.656 20.3633 100.703 20.3867C101.5 20.832 102.129 21.3789 102.59 22.0273C103.058 22.6758 103.293 23.4727 103.293 24.418C103.293 25.332 103.082 26.1523 102.66 26.8789C102.23 27.6055 101.66 28.1797 100.949 28.6016C100.238 29.0234 99.4489 29.2344 98.5817 29.2344Z" fill="white"/>
</svg>
